<?xml version="1.0" encoding="UTF-8"?>
<svg width="125px" height="24px" viewBox="0 0 125 24" version="1.1" xmlns="http://www.w3.org/2000/svg" xmlns:xlink="http://www.w3.org/1999/xlink">
    <!-- Generator: Sketch 52.6 (67491) - http://www.bohemiancoding.com/sketch -->
    <title>main-logo-nav-final copy</title>
    <desc>Created with Sketch.</desc>
    <g id="main-logo-nav-final-copy" stroke="none" stroke-width="1" fill="none" fill-rule="evenodd">
        <g id="Tickertape" transform="translate(0.000000, 3.000000)" fill="#000000">
            <path d="M19.0796626,11.4611771 L23.7794338,3.32128188 L28.4788116,11.4611771 L19.0796626,11.4611771 Z M10.8952999,3.32128188 L20.294449,3.32128188 L15.5946777,11.4611771 L10.8952999,3.32128188 Z M30.8379449,1.26121336e-13 L1.16205514,1.26121336e-13 C0.522983841,1.26121336e-13 0,0.522983841 0,1.16244866 L0,5.50411963 L7.84947982,5.50411963 L7.84947982,9.27833936 L0,9.27833936 L0,13.6200103 C0,14.2590816 0.522983841,14.7820655 1.16205514,14.7820655 L30.8379449,14.7820655 C31.4770162,14.7820655 32,14.2590816 32,13.6200103 L32,1.16244866 C32,0.522983841 31.4770162,1.26121336e-13 30.8379449,1.26121336e-13 Z" id="Fill-1"/>
            <path d="M46.7380817,13.7514666 L46.7380817,4.35558848 L48.929163,4.35558848 L48.929163,13.7514666 L46.7380817,13.7514666 Z M47.8240877,-1.20792265e-13 C48.2606991,-1.20792265e-13 48.6038521,0.139243647 48.8733712,0.408290694 C49.1424182,0.677809753 49.2726936,1.03040299 49.2726936,1.44813393 C49.2726936,1.83848815 49.1424182,2.17267291 48.8733712,2.45068819 C48.6038521,2.72964749 48.2606991,2.86889114 47.8240877,2.86889114 C47.4063568,2.86889114 47.0627318,2.72964749 46.7936847,2.45068819 C46.5151974,2.17267291 46.3759538,1.83848815 46.3759538,1.44813393 C46.3759538,1.03040299 46.5151974,0.677809753 46.7936847,0.408290694 C47.0627318,0.139243647 47.4063568,-1.20792265e-13 47.8240877,-1.20792265e-13 Z M56.6780012,11.5324893 C57.1141406,11.2355935 57.4209487,10.836271 57.5786008,10.3439621 L59.5374521,11.1430791 C59.2499966,12.0247981 58.693022,12.7304566 57.8849368,13.2595825 C57.0773237,13.7981486 56.1578436,14.0582274 55.1458491,14.0582274 C54.2362812,14.0582274 53.4192279,13.8444058 52.6857206,13.4172346 C51.9522134,12.9995037 51.3857986,12.4057121 50.9864761,11.6438842 C50.5781854,10.8830002 50.3738041,10.0192176 50.3738041,9.05395234 C50.3738041,8.07877479 50.5781854,7.20602394 50.9959164,6.44466799 C51.4042071,5.6927523 51.9800622,5.09848874 52.7135694,4.67131755 C53.4470766,4.24461837 54.2825385,4.03079677 55.2020185,4.03079677 C56.2692385,4.03079677 57.1792783,4.30031583 57.9500745,4.82944169 C58.7203987,5.36753578 59.2311161,6.06422603 59.4817546,6.92753664 L57.5601923,7.76347054 C57.4209487,7.27116164 57.1330211,6.87183918 56.6964097,6.56550316 C56.2602703,6.25916714 55.7495529,6.11048324 55.183138,6.11048324 C54.4217821,6.11048324 53.8091101,6.37953029 53.3540901,6.90912816 C52.890102,7.43825402 52.6578719,8.15335275 52.6578719,9.05395234 C52.6578719,9.93567143 52.8806617,10.6507702 53.3356817,11.179896 C53.7812613,11.7184621 54.3939334,11.9879812 55.1647296,11.9879812 C55.7311444,11.9879812 56.2413898,11.8388253 56.6780012,11.5324893 Z M66.5434844,4.35577728 L69.3755586,4.35577728 L66.2371484,7.93032691 L69.2915404,13.7516554 L66.7294573,13.7516554 L64.6771475,9.68526887 L63.0062237,11.5884227 L63.0062237,13.7516554 L60.7594449,13.7516554 L60.7594449,0.324791707 L63.0062237,0.324791707 L63.0062237,8.43160404 L66.5434844,4.35577728 Z M78.6509319,8.56169064 C78.6509319,8.97045335 78.6046747,9.36930379 78.5211285,9.75918601 L71.7524712,9.75918601 C71.7619115,10.4931652 72.0035818,11.0779885 72.4586017,11.514128 C72.9131496,11.9507394 73.5074132,12.1730572 74.2409204,12.1730572 C74.835184,12.1730572 75.3643098,12.0338136 75.8377382,11.7463581 C76.3111666,11.4584305 76.6269429,11.0874288 76.8034755,10.6135284 L78.6141149,11.3191869 C78.3445959,12.1456805 77.81547,12.8046098 77.0168251,13.3153271 C76.2186522,13.8260445 75.2902039,14.0766831 74.2409204,14.0766831 C73.3124721,14.0766831 72.4954187,13.8723017 71.7897602,13.4545708 C71.0746615,13.0462801 70.5271271,12.4614568 70.1466852,11.6996288 C69.7563309,10.9382729 69.5613898,10.0565538 69.5613898,9.05399954 C69.5613898,8.05097327 69.7563309,7.16878216 70.1466852,6.41686647 C70.5271271,5.66495077 71.0746615,5.08012746 71.7713517,4.66239651 C72.46757,4.24466557 73.2756551,4.03084397 74.2036314,4.03084397 C75.0763823,4.03084397 75.8471785,4.21634483 76.5249882,4.59725881 C77.1933577,4.97770077 77.7135154,5.51626688 78.0939573,6.20351688 C78.465431,6.89076688 78.6509319,7.67949954 78.6509319,8.56169064 Z M71.7713517,8.05097327 L76.3668641,8.05097327 C76.3390154,7.41045249 76.135106,6.89076688 75.7357836,6.50041265 C75.3364611,6.11053044 74.8073352,5.91558934 74.1668145,5.91558934 C73.5074132,5.91558934 72.9598788,6.11053044 72.5232674,6.50041265 C72.086656,6.89973511 71.8364894,7.41045249 71.7713517,8.05097327 Z M82.9542214,4.60651025 C83.3535439,4.37428017 83.8269723,4.26288525 84.3745066,4.26288525 C84.6067367,4.26288525 85.1495509,4.29073398 85.4927039,4.35587169 L85.4927039,6.52854459 C85.1495509,6.46340689 84.6067367,6.43555816 84.3745066,6.43555816 C83.6598799,6.43555816 83.1118735,6.63993951 82.7219913,7.0482302 C82.3321091,7.46596114 82.137168,8.03237598 82.137168,8.76588319 L82.137168,13.7517498 L79.8903892,13.7517498 L79.8903892,4.35587169 L81.9795159,4.35587169 L82.0904388,5.55336705 C82.2580032,5.1545166 82.5454587,4.83874033 82.9542214,4.60651025 Z M90.7350148,1.50548343 L90.7350148,4.35596609 L93.3811161,4.35596609 L93.3811161,6.29640891 L90.7350148,6.29640891 L90.7350148,10.5209196 C90.7350148,11.0873344 90.8648182,11.4956251 91.1159288,11.7372954 C91.3665673,11.9780217 91.7470093,12.0988569 92.2577267,12.0988569 C92.5640627,12.0988569 92.9355364,12.0525997 93.3811161,11.9596132 L93.3811161,13.7329637 C92.7217148,13.9279048 92.1090428,14.0213632 91.5336597,14.0213632 C90.5584822,14.0213632 89.8065665,13.7329637 89.2774406,13.1670209 C88.7483148,12.600606 88.488236,11.8208416 88.488236,10.8272556 L88.488236,6.29640891 L86.3065948,6.29640891 L86.3065948,4.35596609 L88.488236,4.35596609 L88.488236,1.756122 L90.7350148,1.50548343 Z M42.428892,1.50548343 L42.428892,4.35596609 L45.0749933,4.35596609 L45.0749933,6.29640891 L42.428892,6.29640891 L42.428892,10.5209196 C42.428892,11.0873344 42.5586954,11.4956251 42.809806,11.7372954 C43.0599725,11.9780217 43.4408865,12.0988569 43.9516039,12.0988569 C44.2579399,12.0988569 44.6294136,12.0525997 45.0749933,11.9596132 L45.0749933,13.7329637 C44.415592,13.9279048 43.80292,14.0213632 43.2275369,14.0213632 C42.2523594,14.0213632 41.5004437,13.7329637 40.9713178,13.1670209 C40.442192,12.600606 40.1821132,11.8208416 40.1821132,10.8272556 L40.1821132,6.29640891 L38,6.29640891 L38,4.35596609 L40.1821132,4.35596609 L40.1821132,1.756122 L42.428892,1.50548343 Z M98.9561957,4.03070237 C100.163131,4.03070237 101.10102,4.33751041 101.760421,4.95915069 C102.41935,5.58126298 102.744567,6.47242232 102.744567,7.63310072 L102.744567,13.9160573 L100.785244,13.9160573 L100.664408,12.5911186 C100.395361,13.0461385 100.005479,13.408172 99.4853216,13.677219 C98.965636,13.9462661 98.3808127,14.0765415 97.7214114,14.0765415 C96.7835228,14.0765415 96.0221669,13.8074944 95.4373436,13.2778966 C94.8525202,12.7487707 94.5645927,12.034144 94.5645927,11.1429846 C94.5645927,10.2329448 94.880369,9.50887785 95.5024813,8.97031174 C96.1245936,8.43174564 96.941647,8.16269859 97.9626097,8.16269859 L100.552542,8.16269859 C100.552542,8.16269859 100.553486,7.85589056 100.553486,7.23377826 C100.553486,6.79763884 100.404802,6.46345409 100.107434,6.231224 C99.8105381,5.99946593 99.3928072,5.87863077 98.8632093,5.87863077 C98.278386,5.87863077 97.8049576,6.01787442 97.4429241,6.29636171 C97.0714504,6.574849 96.8486605,6.95529097 96.7835228,7.43815962 L94.8898092,6.92744224 C95.0474613,5.99946593 95.4840728,5.2843672 96.21758,4.78261806 C96.941647,4.28134093 97.8512148,4.03070237 98.9561957,4.03070237 Z M100.534605,10.1399584 L100.534605,9.72222744 L98.4454783,9.72222744 C97.8885038,9.72222744 97.4802131,9.83362236 97.210694,10.0564122 C96.941647,10.279202 96.8113715,10.585538 96.8113715,10.9758923 C96.8113715,11.3657745 96.9506152,11.6721105 97.2385427,11.9038686 C97.5264703,12.1360987 97.9163525,12.2474936 98.4270699,12.2474936 C99.0675906,12.2474936 99.5877483,12.0525525 99.9681902,11.6626703 C100.348632,11.2822283 100.534605,10.7715109 100.534605,10.1399584 Z M109.448039,4.03098558 C110.720113,4.03098558 111.713699,4.48553348 112.447206,5.38660508 C113.180713,6.29617291 113.542747,7.52198901 113.542747,9.05366913 C113.542747,10.0840721 113.375654,10.9757035 113.032029,11.7370594 C112.688404,12.4984154 112.206008,13.0737984 111.592863,13.4731209 C110.970751,13.8814116 110.256124,14.0763527 109.429631,14.0763527 C108.844808,14.0763527 108.32465,13.9654298 107.870102,13.7421679 C107.405642,13.5198501 107.043608,13.2040738 106.79297,12.8047514 L106.79297,17.7070718 L104.546191,17.7070718 L104.546191,4.35573008 L106.523923,4.35573008 L106.634846,5.49752799 C106.904365,5.04298008 107.275838,4.6809466 107.767675,4.42086779 C108.259984,4.16078898 108.816959,4.03098558 109.448039,4.03098558 Z M110.664415,11.3282967 C111.035889,10.7807624 111.221862,10.0099662 111.221862,9.03526065 C111.221862,8.03270639 111.026921,7.27087843 110.636566,6.74175258 C110.237716,6.21262672 109.68971,5.95254791 108.993019,5.95254791 C108.278393,5.95254791 107.739827,6.22206696 107.359385,6.75119282 C106.978471,7.28031868 106.79297,8.04167462 106.79297,9.03526065 C106.79297,10.0751039 106.996879,10.8548683 107.396202,11.3750259 C107.795524,11.8947115 108.33409,12.1547904 109.030308,12.1547904 C109.745407,12.1547904 110.283973,11.8763031 110.664415,11.3282967 Z M120.780679,11.7464997 C121.254107,11.4581001 121.569883,11.0870984 121.746416,10.613198 L123.557055,11.3188565 C123.287536,12.1453501 122.75841,12.8047514 121.960237,13.3154688 C121.161593,13.8261861 120.233144,14.0763527 119.183861,14.0763527 C118.255412,14.0763527 117.438359,13.8724433 116.732701,13.4547124 C116.018074,13.0464217 115.470067,12.4611264 115.089153,11.6997704 C114.699271,10.9384145 114.50433,10.0566954 114.50433,9.05366913 C114.50433,8.05111487 114.699271,7.16892376 115.089153,6.41700807 C115.470067,5.66462036 116.018074,5.08026906 116.714292,4.66206611 C117.41051,4.24433516 118.218123,4.03098558 119.147044,4.03098558 C120.019323,4.03098558 120.790119,4.21648644 121.467929,4.59740041 C122.136298,4.97784238 122.656456,5.51640848 123.036898,6.20365848 C123.408371,6.89043647 123.593872,7.67964114 123.593872,8.56183225 C123.593872,8.97012294 123.547615,9.3694454 123.464069,9.75932761 L116.695412,9.75932761 C116.704852,10.4928348 116.94605,11.0781302 117.40107,11.5142696 C117.85609,11.950409 118.450354,12.1731988 119.183861,12.1731988 C119.778124,12.1731988 120.30725,12.0339552 120.780679,11.7464997 Z M117.466208,6.50055426 C117.030068,6.89987672 116.778958,7.41059409 116.714292,8.05111487 L121.310276,8.05111487 C121.281956,7.41059409 121.078046,6.89043647 120.678724,6.50055426 C120.279401,6.11067205 119.750276,5.91573094 119.109283,5.91573094 C118.450354,5.91573094 117.902819,6.11067205 117.466208,6.50055426 Z" id="wordmark"/>
        </g>
    </g>
</svg>