<svg width="463" height="71" viewBox="0 0 463 71" fill="none" xmlns="http://www.w3.org/2000/svg">
<path d="M15.2 54.6563H26.9V13.6842H42.2V3.7759H0V13.6842H15.2V54.6563ZM42.2 54.6563H53.2V37.5176C53.2 31.537 56.6 27.9664 61.9 27.9664C63.7 27.9664 65.2 28.2342 66.9 28.7698V18.7722C65.7 18.5045 64.4 18.3259 63.2 18.3259C58.7 18.3259 54.6 21.0038 53.2 24.4851V18.7722H42.2V54.6563ZM88 55.4597C93.5 55.4597 97.7 52.9603 99.6 50.6394V54.6563H110.6V18.8615H99.6V22.8784C97.8 20.5575 93.6 18.0581 88 18.0581C77.3 18.0581 69.1 26.6274 69.1 36.8035C69.1 46.8903 77.3 55.4597 88 55.4597ZM90.3 46.5333C84.2 46.5333 80.2 42.4271 80.2 36.8035C80.2 31.1799 84.2 27.0738 90.3 27.0738C96.4 27.0738 100.4 31.1799 100.4 36.8035C100.4 42.4271 96.4 46.5333 90.3 46.5333ZM136.7 55.4597C142.2 55.4597 146.4 52.9603 148.3 50.6394V54.6563H159.3V0.919464H148.3V22.8784C146.5 20.5575 142.3 18.0581 136.7 18.0581C126 18.0581 117.8 26.6274 117.8 36.8035C117.9 46.8903 126 55.4597 136.7 55.4597ZM139.1 46.5333C133 46.5333 129 42.4271 129 36.8035C129 31.1799 133 27.0738 139.1 27.0738C145.2 27.0738 149.2 31.1799 149.2 36.8035C149.2 42.4271 145.2 46.5333 139.1 46.5333ZM174.6 13.4164C178.5 13.4164 181.7 10.6492 181.7 7.16793C181.7 3.68664 178.5 0.919464 174.6 0.919464C170.8 0.919464 167.6 3.68664 167.6 7.16793C167.7 10.56 170.8 13.3271 174.6 13.4164ZM169.2 54.6563H180.2V19.2186H169.2V54.6563ZM189.9 54.6563H200.9V37.1606C200.9 30.2873 204.7 26.9845 209.8 26.9845C214.4 26.9845 216.9 30.1087 216.9 35.286V54.6563H227.9V33.6793C227.9 24.3958 222.1 18.0581 212.4 18.0581C207.2 18.0581 203.1 20.0219 200.9 22.9676V18.8615H189.9V54.6563ZM255.9 45.1051C250.4 45.1051 245.7 41.356 245.7 35.9109C245.7 30.3765 250.3 26.7167 255.9 26.7167C261.4 26.7167 266.1 30.3765 266.1 35.9109C266.1 41.4452 261.5 45.1051 255.9 45.1051ZM254.6 70.1882C266.9 70.1882 276.2 64.5646 276.2 51.7106V18.683H265.2V22.6998C263 19.9327 258.7 17.8796 253.6 17.8796C243.1 17.8796 234.7 25.9133 234.7 36.0001C234.7 45.9977 243.1 54.0315 253.6 54.0315C258.7 54.0315 263.1 51.9784 265.2 49.3005V51.7106C265.2 57.4235 260.9 61.5296 254.4 61.5296C249.9 61.5296 245.4 60.1907 241.9 57.0664L235.9 64.386C240.5 68.4029 247.6 70.1882 254.6 70.1882ZM299.5 54.6563H309.9L333.5 3.7759H320.7L304.8 39.1244L288.7 3.7759H276.1L299.5 54.6563ZM343.5 12.9701C347.4 12.9701 350.5 10.2029 350.6 6.72161C350.6 3.24032 347.4 0.473145 343.5 0.473145C339.7 0.473145 336.5 3.24032 336.5 6.72161C336.5 10.2029 339.8 12.9701 343.5 12.9701ZM338.1 54.6563H349.1V18.7722H338.1V54.6563ZM377.5 55.4597C385.9 55.4597 392.3 52.3354 396.1 47.4259L387.9 41.9808C386.1 44.4802 382.6 46.5333 377.5 46.5333C372.2 46.5333 367.5 43.8554 366.8 39.0351H396.8C397 37.5176 397 36.5357 397 35.6431C397 23.9495 387.8 18.0581 377.2 18.0581C365 18.0581 356.1 26.1811 356.1 36.7142C356.3 48.0508 365.6 55.4597 377.5 55.4597ZM367.3 32.4296C368.4 28.0557 372.9 26.1811 377 26.1811C381.1 26.1811 385.1 28.1449 386.1 32.4296H367.3ZM438.3 54.6563H449.2L462.4 18.7722H450.6L443.1 41.713L434.9 18.7722H426.5L418.4 41.713L410.8 18.7722H399.1L412.4 54.6563H423.3L430.8 34.3041L438.3 54.6563Z" fill="black"/>
</svg>
