<svg width="131" height="30" viewBox="0 0 131 36" fill="none" xmlns="http://www.w3.org/2000/svg">
<path d="M26.793 9.39855H21.1013V25.3285H18.7523V9.39855H12.9703V7.50854H26.793V9.39855Z" fill="#006AFF"/>
<path d="M33.3882 14.0784C33.0268 13.9884 32.6655 13.9884 32.3041 13.9884C30.7682 13.9884 29.7744 14.6184 29.2324 15.8784V25.3284H26.9737V12.0984H29.142V13.6284C29.8648 12.4584 30.9489 11.8284 32.3041 11.8284C32.7558 11.8284 33.1172 11.9184 33.2979 12.0084V14.0784H33.3882Z" fill="#006AFF"/>
<path d="M40.7061 25.5985C38.8992 25.5985 37.4536 24.9685 36.2792 23.7985C35.1047 22.6285 34.5626 21.0085 34.5626 19.0285V18.5785C34.5626 17.2285 34.8336 16.0585 35.2854 15.0685C35.8274 14.0785 36.4598 13.2685 37.3633 12.6385C38.2667 12.0985 39.2605 11.7385 40.3447 11.7385C42.0612 11.7385 43.4164 12.2785 44.4102 13.4485C45.404 14.6185 45.8557 16.2385 45.8557 18.3085V19.2085H36.8212C36.8212 20.5585 37.273 21.5485 37.9957 22.3585C38.7185 23.1685 39.6219 23.5285 40.7964 23.5285C41.6095 23.5285 42.2419 23.3485 42.8743 23.0785C43.4164 22.7185 43.9585 22.3585 44.3198 21.8185L45.675 22.8985C44.6812 24.6985 42.9647 25.5985 40.7061 25.5985ZM40.435 13.7185C39.5316 13.7185 38.7185 14.0785 38.0861 14.7085C37.4536 15.3385 37.0923 16.3285 36.9116 17.4985H43.6874V17.3185C43.5971 16.1485 43.3261 15.2485 42.784 14.6185C42.1516 13.9885 41.4288 13.7185 40.435 13.7185Z" fill="#006AFF"/>
<path d="M50.7343 12.0985L50.8247 13.8085C51.8185 12.5485 53.1737 11.9185 54.7999 11.9185C57.6006 11.9185 59.0461 13.5385 59.0461 16.6885V25.4185H56.7875V16.6885C56.7875 15.6985 56.5164 15.0685 56.155 14.5285C55.7033 14.0785 55.0709 13.8085 54.1675 13.8085C53.4447 13.8085 52.8123 13.9885 52.1799 14.4385C51.6378 14.7985 51.1861 15.3385 50.915 15.9685V25.4185H48.6564V12.0985H50.7343Z" fill="#006AFF"/>
<path d="M61.9372 18.5785C61.9372 16.5085 62.3889 14.8885 63.3827 13.6285C64.3765 12.3685 65.6413 11.7385 67.1772 11.7385C68.7131 11.7385 69.9779 12.2785 70.8813 13.3585V6.42847H73.1399V25.2385H71.062L70.9717 23.7985C70.0682 24.8785 68.8034 25.4185 67.1772 25.4185C65.6413 25.4185 64.3765 24.7885 63.3827 23.5285C62.3889 22.2685 61.9372 20.6485 61.9372 18.5785ZM64.1958 18.8485C64.1958 20.3785 64.4668 21.5485 65.0993 22.3585C65.7317 23.1685 66.5448 23.6185 67.7193 23.6185C69.1648 23.6185 70.2489 22.9885 70.8813 21.7285V15.6085C70.1586 14.3485 69.1648 13.7185 67.7193 13.7185C66.6351 13.7185 65.7317 14.1685 65.0993 14.9785C64.4668 15.8785 64.1958 17.1385 64.1958 18.8485Z" fill="#006AFF"/>
<path d="M79.1027 25.3286H76.8441V6.51855H79.1027V25.3286Z" fill="#00D684"/>
<path d="M87.1434 21.9984L90.2151 12.0984H92.6544L87.3241 27.3984C86.511 29.6484 85.1558 30.7284 83.3489 30.7284H82.8972L82.0841 30.5484V28.7484L82.7165 28.8384C83.5296 28.8384 84.0717 28.6584 84.5234 28.3884C84.9751 28.1184 85.3365 27.4884 85.6075 26.6784L86.1496 25.3284L81.3613 12.1884H83.891L87.1434 21.9984Z" fill="#00D684"/>
<path d="M96.8102 12.0985L96.9006 13.8085C97.8944 12.5485 99.2495 11.9185 100.876 11.9185C103.676 11.9185 105.122 13.5385 105.122 16.6885V25.4185H102.863V16.6885C102.863 15.6985 102.592 15.0685 102.231 14.5285C101.779 14.0785 101.147 13.8085 100.243 13.8085C99.5206 13.8085 98.8882 13.9885 98.2557 14.4385C97.7137 14.7985 97.262 15.3385 96.9909 15.9685V25.4185H94.7323V12.0985H96.8102Z" fill="#00D684"/>
<path d="M114.066 25.5985C112.259 25.5985 110.814 24.9685 109.639 23.7985C108.465 22.6285 107.923 21.0085 107.923 19.0285V18.5785C107.923 17.2285 108.194 16.0585 108.645 15.0685C109.187 14.0785 109.82 13.2685 110.723 12.6385C111.627 12.0985 112.621 11.7385 113.705 11.7385C115.421 11.7385 116.776 12.2785 117.77 13.4485C118.764 14.6185 119.216 16.2385 119.216 18.3085V19.2085H110.181C110.181 20.5585 110.633 21.5485 111.356 22.3585C112.079 23.1685 112.982 23.5285 114.156 23.5285C114.97 23.5285 115.602 23.3485 116.234 23.0785C116.776 22.7185 117.319 22.3585 117.68 21.8185L119.035 22.8985C117.951 24.6985 116.325 25.5985 114.066 25.5985ZM113.795 13.7185C112.892 13.7185 112.079 14.0785 111.446 14.7085C110.814 15.3385 110.452 16.3285 110.272 17.4985H116.957V17.3185C116.867 16.1485 116.596 15.2485 116.054 14.6185C115.512 13.9885 114.789 13.7185 113.795 13.7185Z" fill="#00D684"/>
</svg>